<?xml version="1.0" standalone="no"?>
<!DOCTYPE svg PUBLIC "-//W3C//DTD SVG 20010904//EN"
 "http://www.w3.org/TR/2001/REC-SVG-20010904/DTD/svg10.dtd">
<svg version="1.0" xmlns="http://www.w3.org/2000/svg"
 width="1024.000000pt" height="1024.000000pt" viewBox="0 0 1024.000000 1024.000000"
 preserveAspectRatio="xMidYMid meet">
<metadata>
Created by potrace 1.14, written by Peter Selinger 2001-2017
</metadata>
<g transform="translate(0.000000,1024.000000) scale(0.100000,-0.100000)"
fill="#000000" stroke="none">
<path d="M0 5120 l0 -5120 5120 0 5120 0 0 5120 0 5120 -5120 0 -5120 0 0
-5120z m5525 3266 c151 -25 356 -73 485 -113 637 -198 1239 -621 1656 -1163
333 -433 552 -944 650 -1515 45 -263 44 -640 -2 -955 -49 -336 -191 -772 -346
-1060 -174 -323 -373 -595 -604 -822 -542 -534 -1212 -856 -1954 -939 -164
-19 -475 -16 -645 5 -279 35 -509 87 -735 168 -791 281 -1397 792 -1798 1513
-282 506 -439 1149 -418 1705 13 361 62 622 181 970 215 628 667 1231 1205
1607 478 333 1002 539 1550 609 148 18 638 12 775 -10z"/>
<path d="M4890 7823 c-91 -9 -297 -49 -406 -79 -318 -87 -659 -263 -962 -496
-140 -107 -373 -342 -490 -493 -266 -343 -436 -707 -517 -1110 -67 -335 -70
-606 -10 -965 85 -505 318 -992 657 -1370 103 -116 271 -276 363 -347 377
-292 834 -484 1280 -538 165 -20 536 -15 670 9 115 20 308 71 411 107 111 39
348 152 463 220 624 373 1080 995 1266 1725 70 271 88 424 83 694 -4 191 -9
246 -32 365 -115 603 -383 1096 -832 1535 -188 184 -354 310 -580 441 -267
154 -630 270 -939 299 -102 9 -344 11 -425 3z m502 -223 c483 -102 851 -419
998 -858 75 -226 79 -528 9 -735 -55 -162 -171 -348 -294 -471 -101 -102 -218
-184 -443 -312 -823 -467 -1045 -619 -1200 -824 -133 -175 -190 -350 -179
-548 7 -124 21 -173 77 -280 104 -200 287 -343 514 -402 100 -25 309 -28 422
-5 279 58 497 254 584 526 30 91 37 272 16 362 -65 275 -237 483 -519 628
-116 60 -117 49 18 125 91 51 89 51 201 -17 201 -120 391 -314 462 -470 71
-155 94 -262 94 -434 0 -98 -5 -149 -21 -207 -98 -375 -404 -656 -803 -739
-89 -18 -125 -20 -268 -16 -136 5 -182 10 -259 31 -231 64 -425 191 -571 373
-149 185 -223 451 -187 673 8 52 20 115 26 139 9 33 9 47 -1 60 -10 13 -10 14
2 4 11 -10 17 -5 33 30 36 79 38 87 22 87 -8 0 -14 -5 -12 -12 1 -7 -4 -13
-10 -14 -7 -1 -18 -2 -24 -3 -6 0 -3 -8 5 -17 17 -16 12 -39 -5 -28 -5 3 -7
10 -4 15 4 5 -4 13 -17 18 -17 7 -19 10 -5 10 9 1 17 5 17 10 0 6 9 8 20 6 12
-2 18 0 15 6 -4 5 -10 7 -15 4 -5 -3 -8 4 -7 15 1 11 7 20 14 20 7 0 10 -6 7
-14 -8 -20 31 -9 48 13 7 9 8 13 4 9 -5 -4 -16 -2 -25 5 -14 11 -14 10 -2 -5
9 -12 10 -18 2 -18 -21 0 -24 30 -5 46 11 9 13 12 5 8 -7 -3 -17 0 -22 7 -6 9
-9 10 -9 2 0 -7 -9 -10 -21 -8 -17 3 -19 2 -9 -10 7 -8 16 -12 21 -9 5 3 9 0
9 -7 0 -6 -8 -9 -19 -6 -15 4 -18 1 -13 -12 5 -14 4 -14 -14 -1 -14 10 -16 11
-7 0 9 -10 10 -17 2 -27 -8 -9 -8 -13 -1 -13 6 0 13 6 15 13 4 9 6 9 6 0 1 -7
-8 -17 -19 -23 -11 -6 -17 -16 -14 -25 4 -9 1 -22 -6 -30 -10 -12 -9 -15 6
-16 18 -1 18 -2 1 -6 -14 -4 -16 -8 -7 -19 9 -10 5 -10 -19 2 -37 18 -40 24
-8 16 19 -5 20 -3 9 10 -7 9 -21 15 -30 13 -9 -2 -21 -4 -27 -4 -5 -1 -3 -6 5
-11 11 -8 7 -9 -17 -5 -17 3 -35 1 -38 -5 -3 -5 -11 -10 -16 -10 -6 0 -8 4 -5
8 3 5 -2 9 -11 9 -13 0 -12 -4 5 -17 12 -10 18 -20 15 -24 -4 -3 -1 -6 5 -6 6
0 14 5 17 10 3 6 1 10 -5 10 -6 0 -8 5 -4 11 5 8 10 6 16 -5 8 -14 13 -15 24
-5 8 6 17 9 21 5 3 -3 1 -6 -6 -6 -7 0 -9 -5 -5 -12 4 -6 3 -8 -4 -4 -6 3 -14
1 -17 -4 -4 -6 -17 -10 -28 -9 -39 5 -66 -10 -62 -33 l4 -21 -23 22 c-12 11
-25 18 -29 14 -4 -3 2 -13 13 -20 11 -8 17 -19 14 -25 -5 -8 -1 -9 10 -5 10 4
22 7 26 7 5 0 7 9 5 19 -3 14 1 18 12 14 12 -5 12 -7 1 -14 -10 -7 -10 -9 2
-9 12 0 12 -2 2 -9 -8 -4 -13 -12 -12 -17 1 -5 -4 -10 -12 -12 -9 -2 -8 0 2 7
21 15 -4 15 -32 0 -15 -8 -19 -8 -14 0 7 11 -6 19 -41 26 -10 2 -19 4 -21 4
-2 1 0 6 4 12 4 8 9 8 17 0 6 -6 18 -11 26 -11 13 1 13 3 -2 11 -9 6 -14 15
-11 21 5 7 0 9 -14 6 -15 -4 -20 -3 -15 5 8 12 13 33 15 54 1 7 5 10 10 7 5
-3 6 -10 3 -15 -4 -5 -1 -9 5 -9 6 0 8 -5 5 -10 -4 -6 -12 -7 -18 -4 -7 4 -8
3 -4 -2 5 -5 12 -9 15 -9 4 0 13 -4 21 -9 9 -6 12 -5 8 1 -3 5 0 10 8 10 8 0
11 -5 8 -10 -3 -6 -1 -7 6 -3 6 4 8 12 5 18 -4 7 2 8 17 3 13 -4 20 -4 16 1
-4 4 -22 9 -40 9 -19 1 -31 6 -30 13 2 7 -1 12 -6 12 -13 0 -22 30 -14 43 4 7
8 17 8 22 1 6 6 9 12 8 7 -2 10 6 8 17 -2 11 5 30 15 42 18 22 24 8 8 -18 -4
-6 -2 -11 5 -11 8 0 13 14 13 33 0 19 -4 30 -10 27 -19 -12 67 133 121 204
119 155 281 288 488 398 574 307 987 577 1171 766 174 179 261 365 271 579 5
97 2 129 -15 197 -63 247 -235 437 -486 537 -452 180 -998 -89 -1100 -541 -20
-91 -21 -260 -1 -337 69 -264 263 -471 567 -603 92 -40 105 -48 90 -58 -15
-11 -265 -151 -429 -242 l-62 -34 -58 32 c-356 195 -556 455 -651 844 -24 102
-24 371 1 479 59 251 162 435 349 623 220 223 478 345 843 397 76 11 353 -4
447 -24z m-2147 -1254 c11 -8 18 -26 18 -46 0 -37 -23 -60 -62 -60 -53 0 -80
62 -44 102 19 21 62 24 88 4z m3735 -16 c11 -11 20 -31 20 -45 0 -31 -41 -75
-70 -75 -28 0 -70 43 -70 72 0 62 76 92 120 48z m-3589 -300 c22 -12 26 -59 7
-78 -7 -7 -24 -12 -38 -12 -32 0 -50 17 -50 46 0 44 40 65 81 44z m-346 -85
c36 -35 35 -96 -1 -124 -88 -70 -205 41 -129 123 33 36 95 37 130 1z m4195 -5
c42 -42 11 -103 -52 -103 -35 0 -58 24 -58 62 0 55 69 82 110 41z m-378 -97
c36 -32 10 -93 -40 -93 -56 0 -83 64 -40 94 29 21 57 20 80 -1z m-3357 -298
c33 -33 32 -70 -4 -106 -36 -35 -70 -37 -107 -6 -36 32 -36 83 1 115 35 29 79
29 110 -3z m-505 -95 c47 -47 -1 -124 -63 -101 -59 23 -40 121 23 121 11 0 29
-9 40 -20z m3758 -6 c15 -10 22 -25 22 -49 0 -58 -69 -86 -110 -45 -27 27 -25
56 5 85 28 29 51 31 83 9z m496 -65 c39 -31 49 -63 32 -104 -17 -40 -42 -55
-94 -55 -55 0 -92 35 -92 88 0 80 90 121 154 71z m-4229 -324 c38 -37 35 -95
-6 -129 -40 -34 -80 -34 -119 2 -43 39 -49 80 -15 120 23 27 34 32 71 32 34 0
51 -6 69 -25z m4129 -118 c12 -9 17 -23 14 -42 -2 -24 -8 -31 -31 -33 -35 -4
-57 13 -57 44 0 37 42 55 74 31z m-3649 -32 c28 -27 30 -42 14 -79 -32 -68
-149 -48 -149 26 0 39 40 78 80 78 19 0 40 -9 55 -25z m3255 -75 c26 -14 42
-65 28 -95 -32 -71 -148 -44 -148 35 0 49 72 86 120 60z m479 -226 c76 -64 1
-180 -92 -145 -39 15 -63 73 -46 113 25 61 87 76 138 32z m-3894 -44 c15 -16
17 -26 9 -48 -8 -22 -16 -28 -47 -30 -31 -3 -39 1 -48 22 -26 56 45 101 86 56z
m-325 -150 c43 -43 10 -110 -53 -110 -40 0 -69 28 -69 65 0 59 79 88 122 45z
m3970 -220 c12 -12 20 -33 20 -55 0 -45 -29 -75 -72 -75 -68 0 -102 78 -56
127 27 29 80 31 108 3z m-3020 -26 c0 -8 -19 -13 -24 -6 -3 5 1 9 9 9 8 0 15
-2 15 -3z m-30 -19 c7 -9 8 -15 2 -15 -5 0 -12 7 -16 15 -3 8 -4 15 -2 15 2 0
9 -7 16 -15z m55 6 c3 -5 2 -12 -3 -15 -5 -3 -9 1 -9 9 0 17 3 19 12 6z m-28
-48 c0 -9 -4 -10 -14 -2 -7 6 -13 12 -13 14 0 1 6 2 13 2 8 0 14 -6 14 -14z
m-60 -16 c0 -8 -6 -14 -14 -14 -9 0 -10 4 -2 14 6 7 12 13 14 13 1 0 2 -6 2
-13z m-655 -54 c18 -16 24 -58 10 -80 -12 -19 -55 -31 -80 -22 -43 16 -48 85
-8 111 19 13 59 9 78 -9z m628 11 c0 -8 -19 -13 -24 -6 -3 5 1 9 9 9 8 0 15
-2 15 -3z m-46 -25 c-3 -5 -10 -7 -15 -3 -5 3 -7 10 -3 15 3 5 10 7 15 3 5 -3
7 -10 3 -15z m86 -5 c0 -8 -19 -13 -24 -6 -3 5 1 9 9 9 8 0 15 -2 15 -3z"/>
<path d="M4143 4455 c0 -8 4 -12 9 -9 5 3 6 10 3 15 -9 13 -12 11 -12 -6z"/>
<path d="M4165 4430 c-3 -4 -19 -6 -36 -4 -18 2 -29 1 -26 -2 4 -4 21 -8 39
-9 45 -4 45 -4 28 -16 -13 -9 -13 -10 0 -6 8 2 15 8 15 13 0 5 3 14 7 20 4 6
0 11 -8 11 -8 0 -17 -4 -19 -7z"/>
<path d="M3946 4418 c3 -5 10 -6 15 -3 13 9 11 12 -6 12 -8 0 -12 -4 -9 -9z"/>
<path d="M4019 4418 c11 -15 41 -15 41 -1 0 3 -6 3 -14 0 -7 -3 -20 0 -27 6
-11 10 -11 9 0 -5z"/>
<path d="M3926 4353 c-6 -14 -5 -15 5 -6 7 7 10 15 7 18 -3 3 -9 -2 -12 -12z"/>
<path d="M4016 4331 c-4 -5 -17 -8 -31 -7 -13 2 -22 -1 -19 -5 9 -15 -39 -28
-56 -16 -10 8 -10 6 2 -8 21 -25 23 -36 8 -45 -8 -5 -7 -9 5 -13 9 -4 13 -3
10 2 -3 5 5 12 17 14 22 4 22 4 -2 6 -20 1 -22 3 -10 11 13 9 13 10 0 10 -8 0
-2 7 14 15 31 16 56 7 56 -22 0 -11 -3 -11 -14 -1 -8 7 -11 18 -8 23 3 6 -2 3
-13 -5 -16 -14 -16 -15 -1 -18 9 -2 13 -9 10 -15 -4 -7 -4 -9 1 -5 4 4 14 3
22 -3 7 -6 13 -10 14 -8 2 12 5 99 3 99 -2 0 -5 -4 -8 -9z"/>
</g>
</svg>
